<svg id="Capa_1" enable-background="new 0 0 512 512" height="512" viewBox="0 0 512 512" width="512" xmlns="http://www.w3.org/2000/svg"><g><path d="m437.02 74.98c-48.353-48.351-112.64-74.98-181.02-74.98s-132.667 26.629-181.02 74.98c-20.904 20.905-37.748 44.788-50.136 70.693l1.655 224.048c12.217 24.598 28.493 47.31 48.481 67.298 48.353 48.352 112.64 74.981 181.02 74.981s132.667-26.629 181.02-74.98c21.331-21.332 38.435-45.765 50.889-72.282l-2.246-222.132c-12.235-24.724-28.567-47.548-48.643-67.626z" fill="#eaf4ff"/><path d="m437.02 437.02c21.331-21.332 38.435-45.765 50.889-72.282l-2.246-222.132c-12.235-24.724-28.566-47.548-48.643-67.625-48.353-48.352-112.64-74.981-181.02-74.981v512c68.38 0 132.667-26.629 181.02-74.98z" fill="#cde7fc"/><path d="m257.239 239.38-232.385-93.702c-16.264 34.013-24.854 71.506-24.854 110.322 0 40.11 9.175 78.807 26.509 113.711l231.013-97.869 230.379 92.892c15.776-33.59 24.099-70.521 24.099-108.734 0-39.987-9.12-78.567-26.351-113.386z" fill="#cde7fc"/><path d="m257.239 239.38-1.239-.5v33.607l1.523-.645 230.379 92.892c15.775-33.59 24.098-70.521 24.098-108.734 0-39.987-9.12-78.567-26.351-113.386z" fill="#9ac2cc"/><circle cx="256" cy="256" fill="#ffd400" r="115"/><path d="m371 256c0-63.411-51.589-115-115-115v230c63.411 0 115-51.589 115-115z" fill="#ff9f04"/><circle cx="256" cy="256" fill="#cde7fc" r="45"/><circle cx="256" cy="256" fill="#eaf4ff" r="45"/><path d="m256.377 211.01v89.981c24.64-.205 44.623-20.304 44.623-44.991s-19.983-44.786-44.623-44.99z" fill="#cde7fc"/></g></svg>