<svg xmlns="http://www.w3.org/2000/svg" xmlns:xlink="http://www.w3.org/1999/xlink" width="36.002" height="50.001" viewBox="0 0 36.002 50.001">
  <defs>
    <linearGradient id="linear-gradient" x1="0.5" x2="0.5" y2="1" gradientUnits="objectBoundingBox">
      <stop offset="0" stop-color="#3359ac"/>
      <stop offset="1" stop-color="#1ba3d9"/>
    </linearGradient>
  </defs>
  <path id="logo" d="M706.412,64.468a6.847,6.847,0,0,1-2.47-1.443,8.586,8.586,0,0,1-1.755-2.647h2.068a5.465,5.465,0,0,0,2.18,2.172,7.029,7.029,0,0,0,3.31.7,6.869,6.869,0,0,0,3.29-.723,4.445,4.445,0,0,0,1.913-1.821,8.082,8.082,0,0,0,.572-3.536v-.761a7.2,7.2,0,0,1-2.629,2.084,7.818,7.818,0,0,1-7.137-.285,7.2,7.2,0,0,1-2.779-2.722,7.422,7.422,0,0,1-.98-3.758,7.7,7.7,0,0,1,7.655-7.655,7.125,7.125,0,0,1,3.1.685,8.554,8.554,0,0,1,2.772,2.259V44.458h1.905V56.224a13.868,13.868,0,0,1-.544,4.548,5.911,5.911,0,0,1-2.6,3.135,8.551,8.551,0,0,1-4.45,1.1A10.207,10.207,0,0,1,706.412,64.468Zm.483-17.777a5.649,5.649,0,0,0-2.177,2.158,5.885,5.885,0,0,0-.789,2.978,5.367,5.367,0,0,0,1.633,4.018,6.446,6.446,0,0,0,8.457.014,5.551,5.551,0,0,0,1.6-4.139,5.984,5.984,0,0,0-.734-2.979A5.369,5.369,0,0,0,712.8,46.67a5.807,5.807,0,0,0-2.9-.759A6.023,6.023,0,0,0,706.9,46.691ZM724.724,57.11a7.714,7.714,0,0,1-.116-10.582,7.806,7.806,0,0,1,11.344-.013,7.731,7.731,0,0,1-.115,10.595,7.9,7.9,0,0,1-11.112,0Zm1.477-9.471a5.726,5.726,0,0,0-1.705,4.176,5.851,5.851,0,0,0,.778,2.946,5.471,5.471,0,0,0,2.1,2.108,6.058,6.058,0,0,0,5.812,0,5.471,5.471,0,0,0,2.1-2.108,5.852,5.852,0,0,0,.778-2.946,5.714,5.714,0,0,0-1.712-4.176,5.675,5.675,0,0,0-8.151,0ZM726,38.1a5.868,5.868,0,0,1-2.576-2.471,10.4,10.4,0,0,1-.85-4.766V23.675h2.268v6.968a12.637,12.637,0,0,0,.325,3.512,4.018,4.018,0,0,0,1.857,2.168,6.4,6.4,0,0,0,3.269.795,6.269,6.269,0,0,0,3.22-.774,4.118,4.118,0,0,0,1.825-2.037,12.286,12.286,0,0,0,.34-3.664V23.675H738V31a10,10,0,0,1-.851,4.65,5.92,5.92,0,0,1-2.56,2.449,9.266,9.266,0,0,1-4.284.885A9.368,9.368,0,0,1,726,38.1Zm-10.851.88v-5.7a20.674,20.674,0,0,0-.244-3.99,4.507,4.507,0,0,0-1.536-2.585,4.619,4.619,0,0,0-2.917-.867,5.682,5.682,0,0,0-3.7,1.337,6.238,6.238,0,0,0-2.154,3.307,22.358,22.358,0,0,0-.325,4.706v3.792H702V15h2.275V27.334a9.6,9.6,0,0,1,3.039-2.664,7.531,7.531,0,0,1,3.591-.882,6.374,6.374,0,0,1,3.519.986A5.918,5.918,0,0,1,716.7,27.42a13.75,13.75,0,0,1,.732,5.207v6.351Z" transform="translate(-701.996 -15.005)" fill="url(#linear-gradient)"/>
</svg>
