<svg xmlns="http://www.w3.org/2000/svg" xmlns:xlink="http://www.w3.org/1999/xlink" width="996" height="696" viewBox="0 0 996 696">
  <defs>
    <clipPath id="clip-path">
      <path id="Rounded_Rectangle_12" data-name="Rounded Rectangle 12" d="M1272,589.5v-228a37.5,37.5,0,1,1,75,0v7.91a33.407,33.407,0,0,1,12.5-2.41q1.262,0,2.5.092V263a45,45,0,1,1,90,0v43.659a41.131,41.131,0,0,1,32-2.555V231.5a49.5,49.5,0,0,1,99,0v55.89A47.008,47.008,0,0,1,1675,301V417a47,47,0,0,1-93.84,3.917,49.518,49.518,0,0,1-76.649,26.711,41.022,41.022,0,0,1-54,11.894A45.054,45.054,0,0,1,1393,490.78V506.5a33.521,33.521,0,0,1-46,31.09V589.5a37.5,37.5,0,1,1-75,0Z" fill="#e8e2cd"/>
    </clipPath>
    <clipPath id="clip-path-2">
      <rect id="imageMask" width="967" height="663" transform="translate(679 185)" fill="none"/>
    </clipPath>
    <linearGradient id="linear-gradient" x1="0.5" y1="1" x2="0.5" gradientUnits="objectBoundingBox">
      <stop offset="0" stop-color="#fff"/>
      <stop offset="0.228" stop-color="#fff"/>
      <stop offset="0.707" stop-color="#faf6e9"/>
      <stop offset="1" stop-color="#f4edd3"/>
    </linearGradient>
    <clipPath id="clip-path-3">
      <rect id="imageMask-2" data-name="imageMask" width="21" height="10" transform="translate(1261 274)" fill="none"/>
    </clipPath>
    <clipPath id="clip-path-4">
      <path id="Ellipse_4" data-name="Ellipse 4" d="M764.909,191.721c5.282-1.027,9.943.094,10.412,2.505s-3.432,5.2-8.714,6.226-9.943-.095-10.412-2.505S759.627,192.748,764.909,191.721Z" fill="#0d3e60"/>
    </clipPath>
  </defs>
  <g id="bg_elements" data-name="bg elements" transform="translate(-679 -152)">
    <g id="backdrops">
      <g id="Rounded_Rectangle_12-2" data-name="Rounded Rectangle 12">
        <path id="Rounded_Rectangle_12-3" data-name="Rounded Rectangle 12" d="M1272,589.5v-228a37.5,37.5,0,1,1,75,0v7.91a33.407,33.407,0,0,1,12.5-2.41q1.262,0,2.5.092V263a45,45,0,1,1,90,0v43.659a41.131,41.131,0,0,1,32-2.555V231.5a49.5,49.5,0,0,1,99,0v55.89A47.008,47.008,0,0,1,1675,301V417a47,47,0,0,1-93.84,3.917,49.518,49.518,0,0,1-76.649,26.711,41.022,41.022,0,0,1-54,11.894A45.054,45.054,0,0,1,1393,490.78V506.5a33.521,33.521,0,0,1-46,31.09V589.5a37.5,37.5,0,1,1-75,0Z" fill="#e8e2cd"/>
        <g id="Clip" clip-path="url(#clip-path)">
          <path id="Ellipse_6" data-name="Ellipse 6" d="M1289.643,352.924a19,19,0,1,1,4.047-31.066,20.01,20.01,0,0,1,22.7,1.438,16.5,16.5,0,1,1,4.772,25.985,20,20,0,0,1-31.515,3.643Zm112.341-80.667a20.53,20.53,0,0,1-24.737-12.7,18.495,18.495,0,1,1-6.821-33.142,23.511,23.511,0,0,1,34.945-11.582,22.007,22.007,0,0,1,37.722,4.194,20,20,0,1,1-9.411,38.165,21.51,21.51,0,0,1-31.7,15.063ZM1472,209.5a21.511,21.511,0,0,1,30-19.754,18.006,18.006,0,0,1,26.372-15.684,25.413,25.413,0,0,1,2.754-1.285A23.5,23.5,0,0,1,1575,184.063a17.5,17.5,0,1,1-9.958,32.759,18.006,18.006,0,0,1-32.1,4.039,25.34,25.34,0,0,1-3.488-1.372,16.511,16.511,0,0,1-23.185,7.313A21.5,21.5,0,0,1,1472,209.5Z" fill="#fff" opacity="0.969"/>
        </g>
      </g>
      <g id="Ellipse_6_copy_4" data-name="Ellipse 6 copy 4" clip-path="url(#clip-path-2)">
        <path id="Ellipse_6_copy_4-2" data-name="Ellipse 6 copy 4" d="M733,801.52C733,680.3,831.211,582.04,952.36,582.04a218.693,218.693,0,0,1,158.694,67.954,220.173,220.173,0,0,1,90.478-70.806C1216.185,472.2,1307.9,389.78,1418.85,389.78a218.253,218.253,0,0,1,110.584,29.888A218.5,218.5,0,0,1,1677.64,362C1798.79,362,1897,460.265,1897,581.48,1897,689,1819.732,778.463,1717.719,797.3A219.639,219.639,0,0,1,1458.19,918.367a219.294,219.294,0,0,1-330.2,14.679A219.006,219.006,0,0,1,952.36,1021C831.211,1021,733,922.736,733,801.52Z" fill="url(#linear-gradient)"/>
      </g>
    </g>
    <g id="clouds">
      <path id="cloud" d="M707,202a27,27,0,0,1,27-27,27.294,27.294,0,0,1,2.845.148,37.514,37.514,0,0,1,67.49-3.775,14.5,14.5,0,1,1,3.513,27.386,37.52,37.52,0,0,1-55.461,23.013A27,27,0,0,1,707,202Z" fill="#fff"/>
      <path id="cloud_2" data-name="cloud 2" d="M1249.695,285.925a13.5,13.5,0,1,1-2.687-24.154,24.51,24.51,0,0,1,45.445,1.14,14,14,0,1,1-1.644,20.688,24.507,24.507,0,0,1-41.114,2.326Z" fill="#fff"/>
      <path id="cloud_3" data-name="cloud 3" d="M1437.695,408.925a13.5,13.5,0,1,1-2.687-24.154,24.511,24.511,0,0,1,45.445,1.14,14,14,0,1,1-1.644,20.688,24.506,24.506,0,0,1-41.115,2.326Z" fill="#fff"/>
    </g>
    <g id="face_2" data-name="face 2">
      <ellipse id="Ellipse_4-2" data-name="Ellipse 4" cx="8.56" cy="2.88" rx="8.56" ry="2.88" transform="translate(1263.24 274.09)" fill="#0d3e60"/>
      <path id="_" data-name="&gt;" d="M1265.667,265.723l-3.6,3.344h1.7l3.6-3.344-3.6-3.358h-1.7Z" fill="#0d3e60"/>
      <path id="_copy" data-name="&gt; copy" d="M1277.269,265.405l3.636-3.4h-1.713l-3.636,3.4,3.636,3.415h1.713Z" fill="#0d3e60"/>
      <g id="Ellipse_5" data-name="Ellipse 5" clip-path="url(#clip-path-3)">
        <ellipse id="Ellipse_5-2" data-name="Ellipse 5" cx="4.82" cy="6.04" rx="4.82" ry="6.04" transform="translate(1266.95 270.92)" fill="#eb5238"/>
      </g>
      <ellipse id="Ellipse_3" data-name="Ellipse 3" cx="2.92" cy="2.88" rx="2.92" ry="2.88" transform="translate(1252 271.23)" fill="#e8ddff"/>
      <ellipse id="Ellipse_3_copy" data-name="Ellipse 3 copy" cx="2.92" cy="2.88" rx="2.92" ry="2.88" transform="translate(1284.16 271.23)" fill="#e8dbfe"/>
    </g>
    <g id="face_1" data-name="face 1">
      <path id="Ellipse_2" data-name="Ellipse 2" d="M751.806,182.42a3.422,3.422,0,1,1-2.645,4A3.391,3.391,0,0,1,751.806,182.42Z" fill="#0d3e60"/>
      <path id="Ellipse_2_copy" data-name="Ellipse 2 copy" d="M773.57,178.187a3.422,3.422,0,1,1-2.644,4A3.39,3.39,0,0,1,773.57,178.187Z" fill="#0d3e60"/>
      <g id="Ellipse_4-3" data-name="Ellipse 4">
        <path id="Ellipse_4-4" data-name="Ellipse 4" d="M764.909,191.721c5.282-1.027,9.943.094,10.412,2.505s-3.432,5.2-8.714,6.226-9.943-.095-10.412-2.505S759.627,192.748,764.909,191.721Z" fill="#0d3e60"/>
        <g id="Clip-2" data-name="Clip" clip-path="url(#clip-path-4)">
          <path id="Ellipse_5-3" data-name="Ellipse 5" d="M767.142,196.166a4.8,4.8,0,1,1-4.032,5.663A4.919,4.919,0,0,1,767.142,196.166Z" fill="#eb5238"/>
        </g>
      </g>
      <path id="Ellipse_3-2" data-name="Ellipse 3" d="M746.9,195.92a2.737,2.737,0,1,1-2.115,3.2A2.713,2.713,0,0,1,746.9,195.92Z" fill="#b8a4de"/>
      <path id="Ellipse_3_copy-2" data-name="Ellipse 3 copy" d="M783.836,188.736a2.737,2.737,0,1,1-2.115,3.2A2.713,2.713,0,0,1,783.836,188.736Z" fill="#b8a4de"/>
    </g>
  </g>
</svg>
