<svg xmlns="http://www.w3.org/2000/svg" width="119" height="140" viewBox="0 0 119 140">
  <g id="Vector_Smart_Object" data-name="Vector Smart Object" transform="translate(-10.715)">
    <path id="Path_1" data-name="Path 1" d="M107.465,109.061V99.714H89.952v9.347A17.575,17.575,0,0,0,73.579,126.55V138.8a1.2,1.2,0,0,0,1.2,1.2h47.852a1.2,1.2,0,0,0,1.2-1.2V126.55A17.575,17.575,0,0,0,107.465,109.061Z" fill="#ffe5bb"/>
    <path id="Path_2" data-name="Path 2" d="M123.3,79.92a21.952,21.952,0,0,1-21.96,21.943H96.073A21.953,21.953,0,0,1,74.111,79.92V59.732A21.953,21.953,0,0,1,96.073,37.789h5.271A21.952,21.952,0,0,1,123.3,59.732Z" fill="#f4d6ab"/>
    <path id="Path_3" data-name="Path 3" d="M80.244,79.92V59.732A21.948,21.948,0,0,1,101.766,37.8c-.147,0-.292-.011-.439-.011H96.056A21.953,21.953,0,0,0,74.095,59.732V79.92a21.952,21.952,0,0,0,21.961,21.943h5.271c.148,0,.293-.008.439-.011A21.947,21.947,0,0,1,80.244,79.92Z" opacity="0.1" style="isolation: isolate"/>
    <g id="Group_1" data-name="Group 1">
      <path id="Path_4" data-name="Path 4" d="M88.4,80.742a2.262,2.262,0,0,1-2.265-2.258V75.31a2.265,2.265,0,0,1,4.53,0v3.174A2.261,2.261,0,0,1,88.4,80.742Z" fill="#684223"/>
      <path id="Path_5" data-name="Path 5" d="M108.984,80.742a2.262,2.262,0,0,1-2.265-2.258V75.31a2.265,2.265,0,0,1,4.53,0v3.174A2.261,2.261,0,0,1,108.984,80.742Z" fill="#684223"/>
    </g>
    <path id="Path_6" data-name="Path 6" d="M95.909,94.935a5.2,5.2,0,0,1-5.191-5.188V88.264a.927.927,0,0,1,.926-.927h14.094a.927.927,0,0,1,.926.927v1.483a5.2,5.2,0,0,1-5.191,5.188Z" fill="#fff"/>
    <path id="Path_7" data-name="Path 7" d="M74.781,140h47.852a1.2,1.2,0,0,0,1.2-1.2v-3.85a12.665,12.665,0,0,0-25.129-2.3,12.664,12.664,0,0,0-25.128,2.3V138.8A1.2,1.2,0,0,0,74.781,140Z" fill="#eb5238"/>
    <path id="Path_8" data-name="Path 8" d="M99.883,34.4H97.533A29.8,29.8,0,0,0,67.7,64.176V105.9a29.6,29.6,0,0,0,6.053,17.978,17.588,17.588,0,0,1,16.165-14.821V101A21.954,21.954,0,0,1,74.08,79.92V67.267h30.944l3.494-6.045,3.494,6.045h11.26V79.92A21.955,21.955,0,0,1,107.432,101v8.063a17.587,17.587,0,0,1,16.176,14.89,29.6,29.6,0,0,0,6.106-18.047V64.176A29.8,29.8,0,0,0,99.883,34.4Z" fill="#c69c6d"/>
    <g id="Group_2" data-name="Group 2" opacity="0.1">
      <path id="Path_9" data-name="Path 9" d="M74.066,105.9V64.176a29.8,29.8,0,0,1,27.85-29.706c-.656-.043-1.317-.067-1.983-.067h-2.35A29.8,29.8,0,0,0,67.751,64.176V105.9A29.6,29.6,0,0,0,73.8,123.883a17.442,17.442,0,0,1,2.5-6.658A29.621,29.621,0,0,1,74.066,105.9Z"/>
    </g>
    <path id="Path_10" data-name="Path 10" d="M98.69,117.626a12.915,12.915,0,0,0,11.942-8.052,17.45,17.45,0,0,0-3.08-.5,9.854,9.854,0,0,1-17.722,0,17.421,17.421,0,0,0-3.08.5A12.913,12.913,0,0,0,98.69,117.626Z" fill="#ffc529"/>
    <path id="Path_11" data-name="Path 11" d="M102.417,116.7a3.823,3.823,0,0,1-3.825,3.821h0a3.824,3.824,0,0,1-3.826-3.821h0a3.824,3.824,0,0,1,3.826-3.821h0a3.823,3.823,0,0,1,3.825,3.821Z" fill="#cc961d"/>
    <g id="Group_3" data-name="Group 3">
      <path id="Path_12" data-name="Path 12" d="M84.222,86.338H80.856a2.258,2.258,0,1,1,0-4.517h3.366a2.258,2.258,0,1,1,0,4.517Z" fill="#ff9c88"/>
      <path id="Path_13" data-name="Path 13" d="M116.926,86.338h-3.366a2.258,2.258,0,1,1,0-4.517h3.366a2.258,2.258,0,1,1,0,4.517Z" fill="#ff9c88"/>
    </g>
    <path id="Path_14" data-name="Path 14" d="M11.9,139.957a1.187,1.187,0,0,1-1.188-1.187V121.144a8.956,8.956,0,0,1,8.949-8.941H72.441a8.955,8.955,0,0,1,8.949,8.941V138.77a1.187,1.187,0,0,1-1.187,1.187Z" fill="#0d3e60"/>
    <path id="Path_15" data-name="Path 15" d="M20.1,138.77V121.144a8.956,8.956,0,0,1,8.95-8.941H19.664a8.956,8.956,0,0,0-8.949,8.941V138.77a1.187,1.187,0,0,0,1.188,1.187h9.387A1.187,1.187,0,0,1,20.1,138.77Z" opacity="0.1" style="isolation: isolate"/>
    <g id="Group_4" data-name="Group 4">
      <rect id="Rectangle_1" data-name="Rectangle 1" width="17.918" height="16.58" transform="translate(37.094 96.857)" fill="#ffe5bb"/>
      <path id="Path_16" data-name="Path 16" d="M71.276,68.54a6.534,6.534,0,0,0-1.348.141v12.71A6.5,6.5,0,1,0,71.276,68.54Z" fill="#ffe5bb"/>
      <path id="Path_17" data-name="Path 17" d="M22.068,68.66a6.5,6.5,0,1,0,0,12.753Z" fill="#ffe5bb"/>
    </g>
    <path id="Path_18" data-name="Path 18" d="M71.219,76.051A22.461,22.461,0,0,1,48.749,98.5H43.356a22.46,22.46,0,0,1-22.47-22.451V55.395a22.461,22.461,0,0,1,22.47-22.452h5.393a22.461,22.461,0,0,1,22.47,22.452Z" fill="#f4d6ab"/>
    <path id="Path_19" data-name="Path 19" d="M27.156,76.067V58.844a11.67,11.67,0,0,1-6.27-2.161V76.05A22.461,22.461,0,0,0,43.356,98.5h5.393l.113,0A22.455,22.455,0,0,1,27.156,76.067Z" opacity="0.1" style="isolation: isolate"/>
    <path id="Path_20" data-name="Path 20" d="M48.749,32.943H43.356a22.461,22.461,0,0,0-22.47,22.452v4.514a11.731,11.731,0,0,0,15.984-2.256,11.731,11.731,0,0,0,18.364,0,11.731,11.731,0,0,0,15.984,2.256V55.395A22.461,22.461,0,0,0,48.749,32.943Z" fill="#8c6239"/>
    <g id="Group_5" data-name="Group 5" opacity="0.1">
      <path id="Path_21" data-name="Path 21" d="M30.373,59.909V55.395A22.458,22.458,0,0,1,50.8,33.04c-.675-.061-1.357-.1-2.047-.1H43.356a22.461,22.461,0,0,0-22.47,22.452v4.514A11.727,11.727,0,0,0,32.431,61.08,11.724,11.724,0,0,1,30.373,59.909Z"/>
    </g>
    <g id="Group_6" data-name="Group 6">
      <path id="Path_22" data-name="Path 22" d="M35.521,76.84a2.262,2.262,0,0,1-2.265-2.258V71.334a2.265,2.265,0,0,1,4.53,0v3.248A2.262,2.262,0,0,1,35.521,76.84Z" fill="#684223"/>
      <path id="Path_23" data-name="Path 23" d="M56.584,76.84a2.262,2.262,0,0,1-2.265-2.258V71.334a2.265,2.265,0,0,1,4.53,0v3.248A2.262,2.262,0,0,1,56.584,76.84Z" fill="#684223"/>
    </g>
    <path id="Path_24" data-name="Path 24" d="M53.262,83.64H38.842a.948.948,0,0,0-.948.948V86.1a5.316,5.316,0,0,0,5.312,5.308H48.9A5.316,5.316,0,0,0,54.21,86.1V84.588A.947.947,0,0,0,53.262,83.64Z" fill="#fff"/>
    <rect id="Rectangle_2" data-name="Rectangle 2" width="4.531" height="23.894" transform="translate(43.786 116.063)" fill="#889da8"/>
    <path id="Path_25" data-name="Path 25" d="M60.849,102.334a1.872,1.872,0,0,0-1.865,0l-12.932,7.441-12.931-7.441a1.891,1.891,0,0,0-2.8,1.61V119.3a1.891,1.891,0,0,0,2.8,1.611l12.931-7.441,12.932,7.441a1.89,1.89,0,0,0,2.8-1.611V103.944c0-1.535-.826-1.548-.933-1.61h0c-.622-.332.577.332,0,0C60.227,102,61.426,102.666,60.849,102.334Z" fill="#ffcc36"/>
    <ellipse id="Ellipse_1" data-name="Ellipse 1" cx="5.66" cy="5.659" rx="5.66" ry="5.659" transform="translate(40.392 105.881)" fill="#eb5238"/>
    <path id="Path_26" data-name="Path 26" d="M73.091,37.258a2.316,2.316,0,0,1-1.641-.679L55.43,20.55A12.037,12.037,0,0,1,55.4,3.567a11.942,11.942,0,0,1,16.929-.031l.7.7.7-.706a11.971,11.971,0,0,1,20.45,8.454,11.948,11.948,0,0,1-3.491,8.5L74.729,36.573A2.313,2.313,0,0,1,73.091,37.258Z" fill="#eb5238"/>
    <g id="Group_7" data-name="Group 7" opacity="0.1">
      <path id="Path_27" data-name="Path 27" d="M65,17.468A12.037,12.037,0,0,1,64.971.485c.122-.123.247-.241.374-.358A12.166,12.166,0,0,0,63.857.034,11.99,11.99,0,0,0,51.909,12.066a11.951,11.951,0,0,0,3.521,8.485L71.451,36.579a2.311,2.311,0,0,0,3.279-.006l4.667-4.7Z"/>
    </g>
  </g>
</svg>
