<svg xmlns="http://www.w3.org/2000/svg" width="10.802" height="10.486" viewBox="0 0 10.802 10.486">
  <path id="Combined_shape_417" data-name="Combined shape 417" d="M9.418,10.486H1.386a1.35,1.35,0,0,1-.977-.4A1.279,1.279,0,0,1,0,9.14v-7.8A1.279,1.279,0,0,1,.41.4,1.353,1.353,0,0,1,1.386,0H9.418a1.362,1.362,0,0,1,.976.4,1.281,1.281,0,0,1,.408.949v7.8a1.278,1.278,0,0,1-.408.949A1.359,1.359,0,0,1,9.418,10.486ZM1.2,4.437V8.861a.4.4,0,0,0,.122.3.423.423,0,0,0,.307.12H9.149a.426.426,0,0,0,.3-.12.387.387,0,0,0,.127-.3V4.437h-.95a2.858,2.858,0,0,1,.14.895,2.964,2.964,0,0,1-.45,1.587A3.243,3.243,0,0,1,7.1,8.068a3.472,3.472,0,0,1-1.688.424,3.351,3.351,0,0,1-2.369-.925,2.967,2.967,0,0,1-.986-2.236A2.856,2.856,0,0,1,2.2,4.437Zm4.2-1.255a2.165,2.165,0,0,0-1.529.6,1.954,1.954,0,0,0,0,2.887,2.162,2.162,0,0,0,1.529.6,2.175,2.175,0,0,0,1.537-.6,1.956,1.956,0,0,0,0-2.887A2.178,2.178,0,0,0,5.408,3.181ZM7.87,1.167a.471.471,0,0,0-.345.14.451.451,0,0,0-.14.33V2.765a.45.45,0,0,0,.14.335.481.481,0,0,0,.345.136H9.094A.481.481,0,0,0,9.438,3.1a.448.448,0,0,0,.14-.335V1.638a.448.448,0,0,0-.14-.33.471.471,0,0,0-.345-.14Z" transform="translate(0)" fill="#fff"/>
</svg>
