<svg xmlns="http://www.w3.org/2000/svg" width="13.185" height="9.334" viewBox="0 0 13.185 9.334">
  <path id="Forma_1_copy_2" data-name="Forma 1 copy 2" d="M14.226,2.065a5.94,5.94,0,0,1-1.719.573,2.892,2.892,0,0,0-1.974-.745A2.55,2.55,0,0,0,7.828,4.25a2.127,2.127,0,0,0,.07.537A8.11,8.11,0,0,1,2.323,2.324a2.112,2.112,0,0,0-.365,1.184,2.294,2.294,0,0,0,1.2,1.962,3.01,3.01,0,0,1-1.225-.3V5.2A2.467,2.467,0,0,0,4.1,7.515a3.056,3.056,0,0,1-1.222.04A2.691,2.691,0,0,0,5.41,9.193,5.959,5.959,0,0,1,2.051,10.2a6.467,6.467,0,0,1-.646-.032,8.5,8.5,0,0,0,4.146,1.059c4.976,0,7.7-3.592,7.7-6.706l-.009-.305A5.111,5.111,0,0,0,14.59,3a6.048,6.048,0,0,1-1.552.371A2.456,2.456,0,0,0,14.226,2.065Z" transform="translate(-1.405 -1.893)" fill="#fff"/>
</svg>
