<svg xmlns="http://www.w3.org/2000/svg" width="10.849" height="12.829" viewBox="0 0 10.849 12.829">
  <path id="Forma_1_copy_3" data-name="Forma 1 copy 3" d="M3.554,9.194c.674-1.1-.217-1.337-.357-2.131C2.627,3.815,7.27,1.6,9.7,3.866c1.683,1.571.574,6.4-2.138,5.9-2.6-.479,1.273-4.326-.8-5.08C5.077,4.073,4.181,6.564,4.98,7.8,4.512,9.93,3.5,11.935,3.912,14.6c1.325-.884,1.773-2.578,2.138-4.344a3.938,3.938,0,0,0,1.871.82C11.052,11.3,12.8,8.2,12.373,5.342c-.38-2.536-3.127-3.827-6.058-3.524C4,2.057,1.689,3.78,1.593,6.244,1.535,7.748,2,8.877,3.554,9.194Z" transform="translate(-1.588 -1.775)" fill="#fff"/>
</svg>
