<svg xmlns="http://www.w3.org/2000/svg" width="46" height="38" viewBox="0 0 46 38">
  <path id="Shape_5" data-name="Shape 5" d="M885.068,1040a6.575,6.575,0,0,1-5.02-2.3l-2.244-2.636a4.763,4.763,0,0,0-3.612-1.666,2.231,2.231,0,0,1-2.065,1.363h-.933a.878.878,0,1,1,0-1.756h.933a.425.425,0,0,0,.43-.42v-7.035a.425.425,0,0,0-.43-.42H868.8v5.541a.9.9,0,0,1-1.8,0v-6.419a.889.889,0,0,1,.9-.878h4.229a2.232,2.232,0,0,1,2.052,1.332h3.482a8.121,8.121,0,0,1,5.6,2.209l4.844,4.568a2.59,2.59,0,0,1,.108,3.659,2.729,2.729,0,0,1-3.779.155l-3.8-3.406a.864.864,0,0,1-.056-1.24.913.913,0,0,1,1.269-.054l3.8,3.406a.9.9,0,0,0,1.246-.051.853.853,0,0,0-.036-1.205l-4.843-4.568a6.309,6.309,0,0,0-4.35-1.716h-3.307v5.185a6.568,6.568,0,0,1,4.832,2.3l2.244,2.635a4.766,4.766,0,0,0,3.639,1.668h9.383a.954.954,0,1,0,0-1.907h-3.486a.878.878,0,1,1,0-1.755h3.486a2.709,2.709,0,1,1,0,5.417ZM867,1033.88a.9.9,0,1,1,.9.87A.886.886,0,0,1,867,1033.88Zm24.725-.693a.878.878,0,0,1,.707-1.025.9.9,0,0,1,1.061.677.877.877,0,0,1-.691,1.04l-.026.005a.909.909,0,0,1-.17.016A.9.9,0,0,1,891.725,1033.187Zm2.628-.617a.871.871,0,0,1,.465-1.156.907.907,0,0,1,1.187.44.871.871,0,0,1-.451,1.162l-.019.008a.918.918,0,0,1-.358.073A.9.9,0,0,1,894.353,1032.57Zm2.434-1.152a.864.864,0,0,1,.194-1.227.915.915,0,0,1,1.257.185.862.862,0,0,1-.184,1.224l-.012.008a.913.913,0,0,1-1.255-.19Zm2.134-1.628a.863.863,0,0,1-.093-1.238.205.205,0,0,1,.019-.021.912.912,0,0,1,1.268-.064.864.864,0,0,1,.068,1.238.914.914,0,0,1-1.262.085Zm1.723-2.036a.871.871,0,0,1-.358-1.193l.012-.021a.911.911,0,0,1,1.225-.331.867.867,0,0,1,.338,1.2l-.781-.433.78.435a.9.9,0,0,1-.785.456A.92.92,0,0,1,900.643,1027.754Zm-11.141-.3-5.12-3.96-.017-.014a4.029,4.029,0,0,1-1.5-3.132,4.129,4.129,0,0,1,4.172-4.076,4.246,4.246,0,0,0,6.05,0,4.129,4.129,0,0,1,4.172,4.076,4,4,0,0,1-1.226,2.886.87.87,0,0,1-.075.065l-5.336,4.154a.916.916,0,0,1-1.117,0Zm-4.842-7.106a2.3,2.3,0,0,0,.847,1.777l4.55,3.52,4.737-3.686a2.277,2.277,0,0,0,.665-1.611,2.385,2.385,0,0,0-4.57-.887.906.906,0,0,1-1.66,0,2.384,2.384,0,0,0-4.569.887Zm17.214,5.049a.875.875,0,0,1-.595-1.1.9.9,0,0,1,1.121-.588.872.872,0,0,1,.6,1.092l0,.013a.9.9,0,0,1-.858.619A.932.932,0,0,1,901.875,1025.4Zm-25.135-2.144,0-.008a.88.88,0,0,1,.726-1.019.9.9,0,0,1,1.042.709.883.883,0,0,1-.724,1.023.985.985,0,0,1-.161.013A.887.887,0,0,1,876.74,1023.251Zm25.856-.408a.886.886,0,0,1-.844-.928c0-.008,0-.026,0-.034a.893.893,0,0,1,.974-.8.882.882,0,0,1-.079,1.761Zm-25.184-1.5a.887.887,0,0,1-.871-.9c0-.012,0-.023,0-.034a.9.9,0,1,1,.9.937Zm24.374-1.843a.879.879,0,0,1,.7-1.033.9.9,0,0,1,1.063.68c0,.011,0,.022.006.033a.88.88,0,0,1-.725,1.019.965.965,0,0,1-.159.013A.892.892,0,0,1,901.786,1019.5Zm-24.172-.79a.877.877,0,0,1-.661-1.059c0-.008.006-.025.009-.032a.9.9,0,0,1,1.1-.617.876.876,0,0,1,.634,1.067.9.9,0,0,1-.871.665A.957.957,0,0,1,877.613,1018.71Zm30.26-.085a2.232,2.232,0,0,1-2.053-1.331h-3.482a8.12,8.12,0,0,1-5.6-2.209l-4.843-4.568a2.59,2.59,0,0,1-.108-3.659,2.729,2.729,0,0,1,3.779-.154l3.8,3.406a.864.864,0,0,1,.055,1.24.913.913,0,0,1-1.269.054l-3.8-3.406a.9.9,0,0,0-1.245.05.853.853,0,0,0,.035,1.205l4.844,4.568a6.308,6.308,0,0,0,4.349,1.716h3.308v-5.185a6.569,6.569,0,0,1-4.831-2.3l-2.244-2.635a4.765,4.765,0,0,0-3.64-1.667h-9.383a.953.953,0,1,0,0,1.906h3.837a.878.878,0,1,1,0,1.756h-3.837a2.71,2.71,0,1,1,0-5.418h9.383a6.574,6.574,0,0,1,5.02,2.3l2.245,2.635a4.763,4.763,0,0,0,3.612,1.667,2.231,2.231,0,0,1,2.065-1.363h.867a.878.878,0,1,1,0,1.756h-.867a.425.425,0,0,0-.43.42v7.035a.426.426,0,0,0,.43.42h3.33v-5.884a.9.9,0,0,1,1.8,0v6.762a.887.887,0,0,1-.9.878Zm-29.5-2.45a.867.867,0,0,1-.41-1.174l.014-.028a.909.909,0,0,1,1.212-.37.869.869,0,0,1,.383,1.176.911.911,0,0,1-1.2.4Zm1.3-2.315a.864.864,0,0,1-.147-1.232l.018-.023a.915.915,0,0,1,1.265-.115.864.864,0,0,1,.122,1.23.915.915,0,0,1-1.259.14Zm1.765-2a.864.864,0,0,1,.143-1.233l.56.687-.557-.688a.913.913,0,0,1,1.263.133.863.863,0,0,1-.134,1.232l-.012.01a.914.914,0,0,1-1.263-.14Zm2.174-1.58a.863.863,0,0,1,.4-1.175l.007,0a.908.908,0,0,1,1.205.393.868.868,0,0,1-.4,1.177.921.921,0,0,1-.4.094A.9.9,0,0,1,883.618,1010.278Zm2.456-1.091a.877.877,0,0,1,.648-1.069l.021-.005a.9.9,0,0,1,1.084.646.877.877,0,0,1-.661,1.06.914.914,0,0,1-.224.028A.894.894,0,0,1,886.074,1009.187Zm25.125-1.067a.9.9,0,1,1,.9.87A.885.885,0,0,1,911.2,1008.12Z" transform="translate(-867 -1002)"/>
</svg>
