<svg xmlns="http://www.w3.org/2000/svg" width="20.999" height="21.001" viewBox="0 0 20.999 21.001">
  <path id="Shape_1" data-name="Shape 1" d="M249.926,429.07a10.5,10.5,0,0,0-17.3,10.993.427.427,0,1,0,.8-.29,9.646,9.646,0,1,1,16.065,3.368l-.061.065c-.036.038-.072.077-.11.115a9.655,9.655,0,0,1-13.642,0l-.059-.061c0-.039,0-.078,0-.117q0-.129,0-.257c0-.029,0-.057,0-.085,0-.057.006-.114.01-.17,0-.034.006-.067.009-.1,0-.051.009-.1.014-.153s.009-.071.014-.107.012-.1.019-.144.012-.072.018-.109.015-.093.024-.14.014-.073.022-.11.018-.091.028-.136.017-.073.026-.11.021-.089.033-.133.02-.073.03-.109.024-.087.037-.131.023-.072.034-.108.027-.086.042-.128.025-.071.038-.107.03-.084.046-.126.027-.07.042-.106.033-.083.051-.124l.046-.1c.018-.041.036-.081.055-.121l.049-.1.059-.119.052-.1q.031-.059.064-.117l.056-.1c.022-.039.045-.077.068-.115l.059-.1.072-.113.062-.093.077-.11.065-.091.081-.108.068-.088c.028-.035.057-.07.085-.105l.071-.085.09-.1.073-.082.094-.1.076-.079.1-.1.078-.076.1-.1.08-.072c.036-.032.073-.062.109-.093l.081-.068c.038-.031.076-.061.115-.091l.081-.063c.041-.031.082-.061.124-.091l.078-.057c.046-.032.092-.063.139-.094l.069-.046c.061-.039.123-.078.185-.116l.029-.018q.108-.065.219-.126l.077-.04c.049-.026.1-.052.148-.078l.1-.047.122-.059a4.159,4.159,0,0,0,5.761,0,6.962,6.962,0,0,1,3.422,3.484.427.427,0,1,0,.782-.344,7.707,7.707,0,0,0-3.634-3.812A4.172,4.172,0,0,0,242.5,429.7a.428.428,0,0,0,0,.855,3.317,3.317,0,0,1,2.463,5.542h0a3.306,3.306,0,0,1-4.927,0h0a3.314,3.314,0,0,1,.129-4.581.427.427,0,0,0-.6-.608,4.169,4.169,0,0,0-.516,5.311l-.012.006-.1.051c-.051.026-.1.052-.151.08l-.1.059-.139.08-.106.065-.132.082-.106.07-.126.086-.1.074-.121.089-.1.078-.117.092-.1.082-.113.1-.1.085-.109.1-.093.087-.105.1-.089.09-.1.109-.085.092-.1.114-.079.092c-.033.04-.066.081-.1.122s-.049.06-.073.091-.068.089-.1.134l-.063.084c-.042.059-.083.118-.123.177l-.032.047q-.076.113-.147.228l-.048.08c-.031.051-.062.1-.092.154-.018.032-.036.065-.054.1s-.052.094-.077.142-.036.071-.054.106-.047.092-.069.138-.035.074-.052.111-.042.091-.062.138-.033.077-.049.115-.038.092-.057.139-.03.078-.045.118-.035.093-.051.14-.028.08-.041.12-.031.094-.046.142-.025.081-.037.122-.028.1-.041.145-.022.081-.033.122-.025.1-.036.147-.019.082-.029.123-.021.1-.031.15-.017.082-.024.124-.018.1-.026.154-.014.081-.02.122-.014.107-.021.16-.01.079-.015.119c-.006.056-.011.112-.016.169,0,.038-.007.075-.01.113,0,.063-.008.126-.011.189,0,.031,0,.063-.005.094q-.005.142-.005.286c0,.1,0,.2.008.309a.437.437,0,0,0,.01.073v.005a.43.43,0,0,0,.022.067l0,.006a.4.4,0,0,0,.033.061l0,.007a.433.433,0,0,0,.042.053l0,0,.056.06c.043.046.085.091.13.135a10.51,10.51,0,0,0,14.851,0c.044-.044.087-.09.13-.135l.056-.06a10.507,10.507,0,0,0-.186-14.661Z" transform="translate(-232 -425.998)" fill="#eb5238"/>
</svg>
