<svg id="google.png_2x" data-name="google.png+@2x" xmlns="http://www.w3.org/2000/svg" xmlns:xlink="http://www.w3.org/1999/xlink" width="100" height="31" viewBox="0 0 100 31">
  <defs>
    <linearGradient id="linear-gradient" x1="0.638" y1="0.836" x2="0.323" y2="0.042" gradientUnits="objectBoundingBox">
      <stop offset="0" stop-color="#fcd08f"/>
      <stop offset="1" stop-color="#f79673"/>
    </linearGradient>
    <linearGradient id="linear-gradient-2" x1="0.873" y1="0.135" x2="0.136" y2="1.164" gradientUnits="objectBoundingBox">
      <stop offset="0" stop-color="#e74047"/>
      <stop offset="1" stop-color="#7f50a0"/>
    </linearGradient>
    <linearGradient id="linear-gradient-3" x1="0.877" y1="0.855" x2="0.128" y2="-0.16" gradientUnits="objectBoundingBox">
      <stop offset="0" stop-color="#e6ffab"/>
      <stop offset="1" stop-color="#47bebc"/>
    </linearGradient>
    <linearGradient id="linear-gradient-4" x1="0.5" y1="1" x2="0.5" gradientUnits="objectBoundingBox">
      <stop offset="0" stop-color="#84e9db"/>
      <stop offset="1" stop-color="#197491"/>
    </linearGradient>
  </defs>
  <g id="google.png_2x-2" data-name="google.png+@2x">
    <rect id="background" width="100" height="31" rx="3.09"/>
    <g id="get_it_on_google_play" data-name="get it on google play">
      <path id="google_play" data-name="google play" d="M51.854,26.8c0-2.253,3.5-2.256,3.5-2.256a1.4,1.4,0,0,1-.374-.824,1.244,1.244,0,0,1,.092-.469.98.98,0,0,1-.263.032,2.118,2.118,0,0,1-2.287-2,2.639,2.639,0,0,1,2.721-2.494h3.022l-.775.462-.776.026a2.133,2.133,0,0,1,.814,1.755,2.2,2.2,0,0,1-.867,1.7c-.454.432-.461.588-.461.778s.125.4.762.845a2.273,2.273,0,0,1,1.078,1.9c0,1.736-2.148,2.416-3.4,2.416S51.854,28.166,51.854,26.8Zm1.154-.29c0,1.435,1.8,1.6,2.228,1.6s1.892-.118,1.892-1.4c0-.891-.709-1.173-1.35-1.742a3.089,3.089,0,0,0-.449-.034C55.087,24.944,53.008,25.078,53.008,26.513Zm.65-5.83c0,.832.73,2.208,1.646,2.208s1.094-.723,1.094-1.257c0-1.535-.868-2.376-1.6-2.376S53.658,19.851,53.658,20.683Zm30.432,6.4.193-.543a1.149,1.149,0,0,0,.517.1c.343,0,.938-.8.938-.8L86.17,24.8l-2.324-6.2h.77l1.963,5.26,1.884-5.26h.769s-2.043,7.116-2.308,7.75-1.361.939-2.136.939A1.6,1.6,0,0,1,84.09,27.084ZM70,27.125V18.6h.769v.775a2.092,2.092,0,0,1,1.8-.814c1.3,0,2.7.881,2.7,3.12S74.1,24.9,72.587,24.9c-1.488,0-1.794-.835-1.818-.875v3.1Zm.769-6.2v1.55c.024.04.449,1.863,1.692,1.863,1.262,0,2.11-1.141,2.11-2.608a2.346,2.346,0,0,0-2.02-2.589C71.34,19.14,70.793,20.893,70.769,20.925Zm-41.544-.41a4.644,4.644,0,0,1,4.818-4.575,5,5,0,0,1,3.5,1.022l-1,.947-.464.125.288-.474A3.277,3.277,0,0,0,33.9,16.388a3.357,3.357,0,0,0-3.39,3.628,4.382,4.382,0,0,0,4.28,4.376,3.251,3.251,0,0,0,1.489-.337V22.186a11.182,11.182,0,0,0-1.84.112l.942-.6h3.077s-.916.33-.916,1.072V24.28a13.793,13.793,0,0,1-3.653.635A4.362,4.362,0,0,1,29.225,20.515Zm48.656,2.573c0-1.059.932-2.163,2.889-2.163h1.538V20.15S82.191,19.1,80.513,19.1s-1.641,1.175-1.641,1.175l-.739,0s.066-1.721,2.4-1.721,2.546,1.589,2.546,1.589V24.8h-.77v-.776A3.9,3.9,0,0,1,79.9,24.9C78.466,24.9,77.881,24.148,77.881,23.088Zm.731.055c0,.814.613,1.168,1.352,1.168s2.344-.613,2.344-1.836V21.7H80.77C79.6,21.7,78.611,22.327,78.611,23.143ZM61.294,21.6a2.9,2.9,0,0,1,2.948-3.041A2.168,2.168,0,0,1,66.5,20.2l-3.015,1.214-1.012.053a2.97,2.97,0,0,0,2.619,2.615,3.49,3.49,0,0,0,1.567-.44A2.7,2.7,0,0,1,64.4,24.8,3,3,0,0,1,61.294,21.6Zm1.13-.747a3.715,3.715,0,0,0,.05.609,22.652,22.652,0,0,0,2.647-1.223,1.117,1.117,0,0,0-1.236-1.2A1.636,1.636,0,0,0,62.423,20.855Zm-16.932.933a3.141,3.141,0,0,1,3.239-3.2,2.975,2.975,0,0,1,3.108,3.081A3.092,3.092,0,0,1,48.533,24.8,3.04,3.04,0,0,1,45.491,21.788Zm1.2-.824c0,1.156.7,3.44,2.168,3.44s1.679-1.515,1.679-2.125c0-1.774-.886-3.293-2.168-3.293A1.826,1.826,0,0,0,46.695,20.965Zm-8.155.822a3.142,3.142,0,0,1,3.241-3.2,2.976,2.976,0,0,1,3.11,3.083A3.093,3.093,0,0,1,41.583,24.8,3.042,3.042,0,0,1,38.54,21.786Zm1.2-.823c0,1.156.7,3.441,2.17,3.441s1.679-1.515,1.679-2.126c0-1.774-.886-3.295-2.169-3.295A1.828,1.828,0,0,0,39.744,20.963ZM76.15,24.8V16.27h.77V24.8Zm-17.689,0s.765-.48.77-.776v-7.75h-.77l.517-.785,1.791.01c-.442.237-.758.445-.769,1.55s0,6.2,0,6.2c0,.421.551,1.039.879,1.039a1.238,1.238,0,0,1,.437.058l-.547.454Z" fill="#fff"/>
      <text id="Get_it_on" data-name="Get it on" transform="translate(29.744 11.367)" fill="#fff" font-size="7.692" font-family="SegoeUI, Segoe UI"><tspan x="0" y="0">Get it on</tspan></text>
    </g>
    <g id="icon">
      <g id="icon-2" data-name="icon" transform="translate(-11.562 -24.392)">
        <path id="Path_1" data-name="Path 1" d="M31.836,42.826l4.171-2.257c.472-.255.966-.906,0-1.426l-4.174-2.25-2.988,2.976Z" fill="url(#linear-gradient)"/>
        <path id="Path_2" data-name="Path 2" d="M28.845,39.868l-9.558,9.517a1.312,1.312,0,0,0,.774-.191l11.775-6.369Z" fill="url(#linear-gradient-2)"/>
        <path id="Path_3" data-name="Path 3" d="M28.845,39.868l2.988-2.976L20.061,30.546a1.144,1.144,0,0,0-.781-.132Z" fill="url(#linear-gradient-3)"/>
        <path id="Path_4" data-name="Path 4" d="M28.845,39.868,19.28,30.414c-.4.087-.719.425-.719,1.1V48.251c0,.639.255,1.089.726,1.134Z" fill="url(#linear-gradient-4)"/>
      </g>
      <path id="Color_Overlay" data-name="Color Overlay" d="M7.726,24.994C7.255,24.949,7,24.5,7,23.86V7.126c0-.68.324-1.017.719-1.1a1.142,1.142,0,0,1,.78.132L20.272,12.5l4.174,2.25c.966.52.472,1.171,0,1.426l-4.171,2.256-2.992-2.957,2.992,2.957L8.5,24.8a1.438,1.438,0,0,1-.669.2A1,1,0,0,1,7.726,24.994Z" fill="#fff"/>
    </g>
  </g>
</svg>
