<svg id="apple.png_2x" data-name="apple.png+@2x" xmlns="http://www.w3.org/2000/svg" width="100" height="31" viewBox="0 0 100 31">
  <g id="apple.png_2x-2" data-name="apple.png+@2x">
    <rect id="background" width="100" height="31" rx="3.09"/>
    <g id="download_on_the_app_store" data-name="download on the app store">
      <text id="Download_on_the_App_Store-2" data-name="Download on the
App Store" transform="translate(29.436 10.592)" fill="#fff" font-size="7.692" font-family="SegoeUI, Segoe UI"><tspan x="0" y="0">Download on the</tspan><tspan font-size="13.846"><tspan x="0" y="13.077">App Store</tspan></tspan></text>
    </g>
    <path id="icon" d="M18.537,9.48a4.887,4.887,0,0,1,3.606,2.125A4.389,4.389,0,0,0,20,15.293a4.091,4.091,0,0,0,2.7,3.869S20.565,24.2,18.176,24.2c-1.343,0-1.433-.772-3.218-.772-1.55,0-2.073.772-3.254.772-2.253,0-5.165-4.913-5.165-8.909,0-4.15,2.948-5.812,4.8-5.812,1.623,0,2.3.954,3.606.954C16.04,10.434,16.905,9.48,18.537,9.48Zm-.379-4.232c.324,2.034-1.524,4.55-3.732,4.468A4.2,4.2,0,0,1,18.158,5.248Z" fill="#fff"/>
  </g>
</svg>
