<svg xmlns="http://www.w3.org/2000/svg" width="32" height="27.018" viewBox="0 0 32 27.018">
  <path id="Cart_icon" data-name="Cart icon" d="M23.423,27.018H8.417L2.444,12.395H1.608a1.689,1.689,0,0,1,0-3.374H11.655V9.05a3.289,3.289,0,0,0,3.189,3.375A3.289,3.289,0,0,0,18.031,9.05V9.021H30.392a1.689,1.689,0,0,1,0,3.374h-1L23.423,27.017h0ZM19.874,15.61v7.035a1,1,0,0,0,1,1h.472a1,1,0,0,0,1-1V15.61a1,1,0,0,0-1-1h-.472A1,1,0,0,0,19.874,15.61Zm-5.155,0v7.035a1,1,0,0,0,1,1h.472a1,1,0,0,0,1-1V15.61a1,1,0,0,0-1-1h-.472A1,1,0,0,0,14.719,15.61Zm-5.187,0v7.035a1,1,0,0,0,1,1h.44a1,1,0,0,0,1-1V15.61a1,1,0,0,0-1-1h-.44A1,1,0,0,0,9.532,15.61Zm4.944-5.668a1.631,1.631,0,0,1-.506-2.094L17.646.767A1.3,1.3,0,0,1,19.528.205a1.631,1.631,0,0,1,.5,2.094L16.358,9.38a1.357,1.357,0,0,1-1.194.767A1.266,1.266,0,0,1,14.476,9.941Z" transform="translate(0 0)" fill="#c8c8c8"/>
</svg>
