<svg xmlns="http://www.w3.org/2000/svg" width="122.732" height="57.156" viewBox="0 0 122.732 57.156">
  <g id="logo" transform="translate(-375.008 -49.992)">
    <path id="Shape_1" data-name="Shape 1" d="M409.538,77.369c.034-5.635-9-5.33-7.245-13.049-4.169,5.785,2.846,8.7.259,12.537s-5.807,2.431-5.807,6.78,4.772,3.711,4,7.293c-.308,1.42-1.705,3.143-3.28,4.7a11.821,11.821,0,0,0,.692-3.937c0-4.349-5.692-2.814-6.469-7.164s8.741-8.059,6.671-15.224-6.929-3.71-7.964-7.036,4.284-5.473-.258-12.281c1.811,5.885-4.14,6.653-6.211,15.352s6.987,5.885,7.763,11-5.52,7.065-7.13,13.433a17.5,17.5,0,0,0-.7,4.418,8.56,8.56,0,0,1-2.032-3.381c-.776-3.581,4-2.943,4-7.291s-2.243-2.872-4.83-6.71,3.45-6.823-.719-12.608c1.754,7.718-5.3,7.087-5.261,12.722.029,4.79.892,2.3,2.185,7.164s-3.45,4.037-1.38,9.666,16.1,6.462,17.4,6.189c2.946-.253,11.816-1.4,13.537-6.076,2.07-5.629-2.673-4.8-1.38-9.666S409.508,82.159,409.538,77.369Z" fill="#fff"/>
    <text id="DROP" transform="translate(448.74 98.148)" fill="#fff" font-size="37.037" font-family="SegoeUI, Segoe UI"><tspan x="-48.213" y="0">DROP</tspan></text>
  </g>
</svg>
