<svg xmlns="http://www.w3.org/2000/svg" width="19" height="11.91" viewBox="0 0 19 11.91">
  <path id="email" d="M495.987,431.243a.99.99,0,0,0-.973-1h0l-17.041.024a.952.952,0,0,0-.688.295,1.015,1.015,0,0,0-.284.71l.013,9.878a1.013,1.013,0,0,0,.286.71.952.952,0,0,0,.687.293h0l17.041-.024a.99.99,0,0,0,.972-1.005Zm-2.042,0-7.444,5.338-7.458-5.317Zm-4.3,6.345,4.415,3.532-15.14.021,4.442-3.553a.513.513,0,0,0,.086-.7.477.477,0,0,0-.683-.089l-4.784,3.827-.012-8.9,8.251,5.882a.474.474,0,0,0,.555,0l8.235-5.905.012,8.922-4.782-3.826a.477.477,0,0,0-.683.089A.513.513,0,0,0,489.649,437.591Z" transform="translate(-477 -430.241)" fill="#0099c7" opacity="0.639"/>
</svg>
