<svg xmlns="http://www.w3.org/2000/svg" width="45" height="45" viewBox="0 0 45 45">
  <path id="Shape_7" data-name="Shape 7" d="M888.81,1402.31v-2.569a.69.69,0,1,1,1.38,0v2.569a.69.69,0,1,1-1.38,0Zm11-2.577-1.286-2.227a.689.689,0,0,1,1.193-.689l1.285,2.227a.688.688,0,0,1-.252.94.681.681,0,0,1-.344.093A.688.688,0,0,1,899.809,1399.733Zm-21.56.252a.688.688,0,0,1-.252-.94l1.286-2.227a.689.689,0,1,1,1.193.689l-1.285,2.227a.688.688,0,0,1-.941.252Zm6.733-7.26a.689.689,0,0,1,.038-1.377c1.458.041,2.965.061,4.479.061a105.942,105.942,0,0,0,11.906-.541c-.912-.115-2.174-.232-3.877-.33a11.189,11.189,0,0,1-3.138.425,17.38,17.38,0,0,1-4.443-.634h-.9a17.384,17.384,0,0,1-4.444.633,11.181,11.181,0,0,1-3.136-.424c-1.7.1-2.966.215-3.878.33.858.11,2.069.226,3.776.326a.689.689,0,0,1-.04,1.376h-.04c-1.91-.112-3.5-.265-4.608-.439-1.253-.2-2.29-.431-2.29-1.262s1.066-1.071,2.355-1.271c.6-.093,1.328-.178,2.168-.255a9.325,9.325,0,0,1-3.87-6.747c-.292-2.887-1.155-6.983-1.164-7.024a.689.689,0,0,1,.849-.809,16.03,16.03,0,0,1,3.891,1.749.688.688,0,0,1,1.364.157c-.011.258-.017.514-.018.764a13.3,13.3,0,0,1,3.406,3.727,18.617,18.617,0,0,1,1.235-4.734,14.322,14.322,0,0,0-4.146-3.639c-.02.1-.041.212-.063.33a.689.689,0,0,1-1.354-.25c.144-.779.267-1.263.273-1.282a.689.689,0,0,1,.968-.448,15.265,15.265,0,0,1,4.927,3.856c.185-.41.383-.827.595-1.251a40.053,40.053,0,0,1,3.14-5.245.689.689,0,0,1,1.112,0,39.661,39.661,0,0,1,3.739,6.492,15.246,15.246,0,0,1,4.922-3.851.689.689,0,0,1,.968.448,26.843,26.843,0,0,1,.7,4.923,16,16,0,0,1,3.883-1.744.689.689,0,0,1,.849.809c0,.018-.385,1.824-.725,3.869a.689.689,0,1,1-1.359-.226c.173-1.041.357-2.021.5-2.742a15.868,15.868,0,0,0-3.408,1.863,11.617,11.617,0,0,0-3.993,4.856c-.222.524-.464,1.03-.719,1.508a7.156,7.156,0,0,1-3.228,4.7,11.261,11.261,0,0,0,5.066-.217,7.708,7.708,0,0,0,5.3-6.429.689.689,0,1,1,1.364.192,9.4,9.4,0,0,1-3.841,6.394c.847.077,1.583.163,2.182.256,1.289.2,2.356.433,2.356,1.271,0,.814-1.056,1.027-1.687,1.154a30,30,0,0,1-3.168.4c-2.743.234-6.385.363-10.256.363C887.972,1392.787,886.453,1392.766,884.983,1392.725Zm-8.568-10.268a7.679,7.679,0,0,0,5.333,6.728,11.265,11.265,0,0,0,5.067.217,7.157,7.157,0,0,1-3.227-4.7c-.255-.478-.5-.985-.72-1.509a11.62,11.62,0,0,0-3.993-4.855,15.875,15.875,0,0,0-3.407-1.865C875.75,1377.925,876.21,1380.44,876.415,1382.457Zm8.367,1.211a6.018,6.018,0,0,0,2.722,4.542,4.387,4.387,0,0,0,1.982.592h.031c.208,0,3.86-.077,4.7-5.135.783-4.714-3.211-11.28-4.718-13.55C887.993,1372.388,884,1378.954,884.782,1383.668Zm9.614-7.246a18.974,18.974,0,0,1,1.23,4.741,13.325,13.325,0,0,1,3.408-3.731,25.258,25.258,0,0,0-.495-4.646A14.341,14.341,0,0,0,894.4,1376.422ZM908.044,1392l-2.227-1.286a.689.689,0,1,1,.689-1.193l2.227,1.285a.689.689,0,0,1-.689,1.193Zm-38.03-.252a.689.689,0,0,1,.252-.941l2.227-1.285a.688.688,0,1,1,.688,1.193L870.955,1392a.689.689,0,0,1-.94-.252Zm38.725-10.562a.689.689,0,0,1,0-1.378h2.571a.689.689,0,0,1,0,1.378Zm-41.051,0a.689.689,0,1,1,0-1.378h2.571a.689.689,0,0,1,0,1.378Zm37.876-9.964a.69.69,0,0,1,.252-.941l2.227-1.285a.689.689,0,1,1,.689,1.193l-2.227,1.286a.691.691,0,0,1-.941-.252Zm-33.072.252-2.227-1.286a.688.688,0,1,1,.688-1.193l2.227,1.285a.689.689,0,0,1-.688,1.193Zm26.282-7.042a.689.689,0,0,1-.252-.94l1.286-2.228a.689.689,0,1,1,1.193.689l-1.285,2.227a.691.691,0,0,1-.941.252Zm-19.491-.252L878,1361.955a.689.689,0,0,1,1.193-.688l1.285,2.227a.689.689,0,0,1-1.193.689Zm9.526-2.922v-2.57a.69.69,0,0,1,1.38,0v2.57a.69.69,0,1,1-1.38,0Z" transform="translate(-867 -1358)" fill="#fff"/>
</svg>
