<svg xmlns="http://www.w3.org/2000/svg" width="38" height="42.999" viewBox="0 0 38 42.999">
  <path id="Shape_6" data-name="Shape 6" d="M1156.745,1193a2,2,0,0,1-1.987-2v-8.856a2,2,0,0,1,1.987-2h1.016v-4.978a2.374,2.374,0,0,1-2.136-2.369v-4.981h-1.279l-1.634,3.146a.625.625,0,0,1-.554.338l-.059,0a.625.625,0,0,1-.54-.447l-.9-3.034h-.727a1.942,1.942,0,0,1-1.93-1.949V1151.95a1.942,1.942,0,0,1,1.93-1.949h26.8a1.886,1.886,0,0,1,1.875,1.893v2.462h5.035a2.371,2.371,0,0,1,2.357,2.38v16.056a2.371,2.371,0,0,1-2.356,2.38h-3.808l-1.316,4.386a.624.624,0,0,1-1.2,0l-1.316-4.386h-7.151v4.967h1.016a2,2,0,0,1,1.987,2V1191a2,2,0,0,1-1.987,2Zm-.736-10.859V1191a.739.739,0,0,0,.736.742h13.126a.74.74,0,0,0,.737-.742v-8.856a.74.74,0,0,0-.737-.742h-13.126A.74.74,0,0,0,1156.009,1182.141Zm7.925-10.852a3.235,3.235,0,0,1,2.586,3.174v5.674h1.085v-5.674a4.32,4.32,0,0,0-.175-1.222.624.624,0,0,1,.456-.781l.015,0a.61.61,0,0,1,.726.421,5.5,5.5,0,0,1,.2,1.032h7.643a.626.626,0,0,1,.6.448l.851,2.838.851-2.838a.626.626,0,0,1,.6-.448h4.271a1.113,1.113,0,0,0,1.105-1.119v-16.056a1.113,1.113,0,0,0-1.105-1.119h-25.662a1.112,1.112,0,0,0-1.1,1.119v4.287a.628.628,0,0,1-.645.63.645.645,0,0,1-.607-.656v-4.26a2.371,2.371,0,0,1,2.356-2.38h19.375v-2.462a.628.628,0,0,0-.623-.632h-26.8a.685.685,0,0,0-.679.688v13.911a.685.685,0,0,0,.679.688h1.193a.626.626,0,0,1,.6.45l.593,2,1.1-2.11a.623.623,0,0,1,.554-.338h1.658v-1.858a.628.628,0,0,1,.645-.63.646.646,0,0,1,.607.657v8.072a1.113,1.113,0,0,0,1.1,1.119h7.208a1.976,1.976,0,0,0-1.255-1.318v.274a.629.629,0,0,1-.645.631.646.646,0,0,1-.606-.657v-4.345a.627.627,0,0,1,.644-.63.645.645,0,0,1,.607.656v.389a5.5,5.5,0,0,1,2.579,1,.611.611,0,0,1,.153.815l-.012.02a.6.6,0,0,1-.877.184,4.251,4.251,0,0,0-1.844-.744Zm-2.586,8.849h3.92v-4.967h-3.92Zm-2.336,0h1.084v-4.967h-1.084Zm3.317,10.466a1.264,1.264,0,0,1-.984-.468,1.286,1.286,0,0,1-.268-1.063l.382-1.969a2.674,2.674,0,0,1-.76-2.192,2.629,2.629,0,1,1,4.46,2.192l.382,1.969a1.286,1.286,0,0,1-.268,1.063,1.264,1.264,0,0,1-.984.468Zm.82-6.758a1.39,1.39,0,0,0-.642,2.506.633.633,0,0,1,.249.633l-.451,2.33a.021.021,0,0,0,.005.02.019.019,0,0,0,.018.009h1.958a.02.02,0,0,0,.018-.009.021.021,0,0,0,.005-.02l-.451-2.33a.633.633,0,0,1,.249-.633,1.394,1.394,0,0,0,.117-2.161,1.354,1.354,0,0,0-.917-.354A1.6,1.6,0,0,0,1163.149,1183.846Zm11.463-17.158a.63.63,0,0,1,0-1.261h5.84a.63.63,0,0,1,0,1.261Zm-13.891,0a.63.63,0,0,1,0-1.261h10.8a.63.63,0,0,1,0,1.261Zm3.587-3.447a.63.63,0,0,1,0-1.261h16.185a.63.63,0,0,1,0,1.261Zm-3.67,0a.63.63,0,0,1,0-1.261h1.5a.63.63,0,0,1,0,1.261Zm18.353-3.279a.63.63,0,0,1,0-1.261h1.5a.63.63,0,0,1,0,1.261Zm-18.353,0a.63.63,0,0,1,0-1.261h16.184a.63.63,0,0,1,0,1.261Z" transform="translate(-1148 -1150)" fill="#0d3e60"/>
</svg>
