<svg xmlns="http://www.w3.org/2000/svg" width="29.118" height="35.09" viewBox="0 0 29.118 35.09">
  <path id="promise_icon" data-name="promise icon" d="M1318.222,100.933a3.75,3.75,0,0,0-2.16.69,3.892,3.892,0,0,0-1.591-1.745,3.7,3.7,0,0,0-3.648.009,3.884,3.884,0,0,0-1.278,1.175l-.439-.507c.555-1.054,1.027-1.952,1.231-2.347,1.381-2.677.358-4.952-1.366-5.816a4.109,4.109,0,0,0-5.356,1.848,4.02,4.02,0,0,0-5.257-.5c-1.545,1.193-2.125,3.638-.246,6,.671.844,1.207,1.526,1.553,1.969-1.234,2.34-2.4,4.547-2.821,5.346a6.954,6.954,0,0,0-3.844,6.508c-.022,4.811,4.567,12.638,4.763,12.969a1.145,1.145,0,0,0,.986.558h19.686a1.123,1.123,0,1,0,0-2.246h-19.019c-1.022-1.831-4.152-7.738-4.136-11.271.012-2.526,1.256-4.173,3.8-5.034.79-.268,1.626-.562,2.416-.841,1.1-.388,2.141-.755,2.791-.952.717-.218,1.274-.05,1.524.46.39.795-.039,2.157-1.614,3.222a23.438,23.438,0,0,1-3.263,1.621,1.117,1.117,0,0,0-.615,1.468,1.144,1.144,0,0,0,1.49.605c.069-.028,1.237-.508,2.359-1.084a7.585,7.585,0,0,1,4.157,4.061l.009.021q.163.377.3.8a1.139,1.139,0,0,0,1.083.774,1.166,1.166,0,0,0,.354-.055,1.119,1.119,0,0,0,.729-1.417c-.009-.026-.018-.05-.027-.076a6.345,6.345,0,0,1,6.118.71,1.152,1.152,0,0,0,1.61-.086,1.111,1.111,0,0,0-.088-1.585,8.7,8.7,0,0,0-8.567-1.089,9.552,9.552,0,0,0-3.519-3.473c1.989-1.779,2.232-3.969,1.533-5.394a3.191,3.191,0,0,0-1.092-1.258l1.2-2.266.753.868c-.008.131-.013.264-.013.4l0,5.38a3.826,3.826,0,0,0,3.875,4.033,4.1,4.1,0,0,0,2.389-.775,3.554,3.554,0,0,0,3.05,1.607,4.161,4.161,0,0,0,1.815-.424v3.585a11.309,11.309,0,0,1-1.481,5.321,1.114,1.114,0,0,0,.372,1.544,1.152,1.152,0,0,0,1.57-.364,13.412,13.412,0,0,0,1.82-6.5V105.509C1322.119,102.5,1320.158,100.933,1318.222,100.933Zm-18.315-2.576c-1-1.261-.777-2.362-.143-2.851s1.714-.418,2.726.841c-.456.868-1.043,1.982-1.667,3.167C1300.557,99.177,1300.25,98.788,1299.907,98.357Zm.825,7.228-.666.235c1.815-3.438,4.838-9.171,5.316-10.093.737-1.426,1.842-1.69,2.557-1.331s1.107,1.363.368,2.8c-.245.474-.88,1.68-1.58,3.007l-.008.014c-.83,1.576-1.752,3.319-2.226,4.216a4.383,4.383,0,0,0-.873.172C1302.921,104.812,1301.858,105.188,1300.732,105.585Zm11.852,5.556a1.58,1.58,0,0,1-1.1-.408,1.811,1.811,0,0,1-.5-1.379l0-5.38a3.878,3.878,0,0,1,.04-.563V103.4a2.074,2.074,0,0,1,.93-1.57,1.371,1.371,0,0,1,1.368-.009,2.355,2.355,0,0,1,.943,2.151v1.493c0,.013,0,.026,0,.04l0,3.849A1.652,1.652,0,0,1,1312.584,111.141Zm7.254-1.057a1.812,1.812,0,0,1-1.815,1.889,1.348,1.348,0,0,1-.981-.386,2.153,2.153,0,0,1-.485-1.529v-.7h0l0-3.134s0-.007,0-.011v-.748c.018-1.566.872-2.281,1.668-2.281s1.616.721,1.616,2.331v4.575Z" transform="translate(-1293 -92.001)" fill="#eb5238"/>
</svg>
