<svg xmlns="http://www.w3.org/2000/svg" xmlns:xlink="http://www.w3.org/1999/xlink" width="34.025" height="36.799" viewBox="0 0 34.025 36.799">
  <defs>
    <linearGradient id="linear-gradient" x1="0.5" y1="1" x2="0.5" gradientUnits="objectBoundingBox">
      <stop offset="0" stop-color="#eb5238"/>
      <stop offset="0.62" stop-color="#eb6138"/>
      <stop offset="1" stop-color="#eb6f38"/>
    </linearGradient>
  </defs>
  <path id="Shape_2" data-name="Shape 2" d="M245.348,800.558l-1.627-.84A26.7,26.7,0,0,1,229.6,782.2a.523.523,0,0,1,.4-.625.533.533,0,0,1,.637.4,25.654,25.654,0,0,0,13.579,16.818l1.627.84a.368.368,0,0,0,.336,0l1.627-.84A25.662,25.662,0,0,0,261.38,782a.533.533,0,0,1,.638-.4.523.523,0,0,1,.4.625A26.706,26.706,0,0,1,248.3,799.718l-1.627.84a1.448,1.448,0,0,1-1.328,0Zm-.12-3.06-.068-.035a25.952,25.952,0,0,1-9.947-8.873,22,22,0,0,1-3.594-11.954v-3.191a1.642,1.642,0,0,1,1.06-1.536,9.418,9.418,0,0,0,5.131-4.626,1.687,1.687,0,0,1,1.517-.937h13.366a1.689,1.689,0,0,1,1.517.937,9.418,9.418,0,0,0,5.131,4.626,1.642,1.642,0,0,1,1.06,1.536v3.191a22.005,22.005,0,0,1-3.593,11.954,25.962,25.962,0,0,1-9.948,8.873l-.068.035a1.711,1.711,0,0,1-1.567,0Zm-6.453-29.767a10.474,10.474,0,0,1-5.7,5.151.6.6,0,0,0-.386.563v3.191a20.976,20.976,0,0,0,3.427,11.392,24.906,24.906,0,0,0,9.543,8.508l.068.035a.629.629,0,0,0,.575,0l.068-.035a24.906,24.906,0,0,0,9.543-8.508,20.976,20.976,0,0,0,3.427-11.392v-3.191a.6.6,0,0,0-.386-.562,10.474,10.474,0,0,1-5.7-5.151.614.614,0,0,0-.553-.338H239.329A.614.614,0,0,0,238.775,767.732Zm1.168,20.089a1.682,1.682,0,0,1-1.7-1.665v-7.5a1.682,1.682,0,0,1,1.7-1.665h.878v-2.5a5.212,5.212,0,0,1,10.423,0v2.5h.877a1.683,1.683,0,0,1,1.7,1.665v7.5a1.683,1.683,0,0,1-1.7,1.665Zm-.629-9.164v7.5a.625.625,0,0,0,.629.618h12.177a.625.625,0,0,0,.63-.618v-7.5a.625.625,0,0,0-.63-.618H239.944A.625.625,0,0,0,239.314,778.657Zm2.573-4.165v2.5h8.29v-2.5a4.146,4.146,0,0,0-8.29,0Zm3.612,9.947v-1.49a1.225,1.225,0,0,1-.716-1.108,1.249,1.249,0,0,1,2.5,0,1.224,1.224,0,0,1-.715,1.108v1.49a.533.533,0,0,1-1.066,0Zm-16.371-5.054a23.533,23.533,0,0,1-.129-2.455V771.3a1.4,1.4,0,0,1,1.266-1.392,5.893,5.893,0,0,0,5.446-4.773,1.432,1.432,0,0,1,1.415-1.219H254.9a1.432,1.432,0,0,1,1.415,1.219,5.893,5.893,0,0,0,5.446,4.773,1.4,1.4,0,0,1,1.266,1.392v5.624a23.559,23.559,0,0,1-.126,2.43.533.533,0,0,1-1.061-.105,22.8,22.8,0,0,0,.12-2.325V771.3a.353.353,0,0,0-.31-.35,6.948,6.948,0,0,1-6.391-5.67.362.362,0,0,0-.358-.317H237.127a.362.362,0,0,0-.358.317,6.948,6.948,0,0,1-6.391,5.67.353.353,0,0,0-.311.35v5.624a22.73,22.73,0,0,0,.122,2.348.527.527,0,0,1-.476.575l-.055,0A.53.53,0,0,1,229.128,779.384Z" transform="translate(-229 -763.92)" fill="url(#linear-gradient)"/>
</svg>
